<svg width="52" height="49" viewBox="0 0 52 49" fill="none" xmlns="http://www.w3.org/2000/svg">
<path d="M51.1433 39.2693C50.7264 38.6057 50.1814 38.0318 49.5401 37.5812C48.8989 37.1306 48.1742 36.8125 47.4086 36.6451C44.4792 35.9638 41.9386 34.1507 40.3419 31.602C38.7453 29.0532 38.2224 25.976 38.8876 23.0429C39.1433 21.9093 39.0584 20.7254 38.6434 19.6398C38.2284 18.5543 37.502 17.6155 36.5553 16.9415C35.6086 16.2675 34.4838 15.8883 33.3222 15.8514C32.1607 15.8146 31.0142 16.1217 30.0266 16.7343C29.039 17.347 28.2546 18.2377 27.7716 19.2948C27.2887 20.3519 27.1288 21.528 27.3121 22.6756C27.4954 23.8232 28.0138 24.891 28.802 25.745C29.5902 26.599 30.6132 27.201 31.7425 27.4754C33.2034 27.805 34.5849 28.4196 35.8078 29.2841C37.0307 30.1485 38.071 31.2459 38.869 32.5132C39.667 33.7805 40.207 35.1929 40.4581 36.6692C40.7093 38.1456 40.6665 39.6571 40.3324 41.117C40.1345 42.0581 40.1698 43.0333 40.4352 43.9576C40.7006 44.8819 41.188 45.7273 41.855 46.4201C42.522 47.1129 43.3482 47.6321 44.2618 47.9323C45.1754 48.2326 46.1486 48.3048 47.0965 48.1429C48.0445 47.9809 48.9384 47.5895 49.7004 47.0028C50.4624 46.4162 51.0693 45.6521 51.4684 44.7771C51.8674 43.9021 52.0464 42.9428 51.9898 41.9829C51.9331 41.0228 51.6426 40.0912 51.1433 39.2693Z" fill="#00ADB5"/>
<path d="M14.887 32.7236C15.9186 33.2866 17.0948 33.5285 18.2647 33.4183C19.4348 33.3081 20.5451 32.8508 21.4535 32.1052C22.3618 31.3595 23.0266 30.3594 23.3626 29.2333C23.6986 28.1072 23.6904 26.9064 23.3392 25.7849C22.894 24.3549 22.7354 22.8511 22.8725 21.3597C23.0097 19.8683 23.4397 18.4186 24.1383 17.0938C24.8367 15.769 25.7898 14.5951 26.9429 13.6393C28.096 12.6835 29.4264 11.9648 30.8578 11.5242C31.968 11.1765 32.9504 10.5081 33.6816 9.60333C34.4128 8.69853 34.86 7.59766 34.967 6.43923C35.074 5.28081 34.836 4.11661 34.2829 3.09323C33.7297 2.06978 32.8863 1.23279 31.8586 0.687629C30.8309 0.142467 29.665 -0.086603 28.5075 0.0293766C27.3499 0.145284 26.2525 0.60097 25.3534 1.33917C24.4542 2.07729 23.7935 3.06492 23.4543 4.1777C23.1152 5.29049 23.1127 6.47874 23.4473 7.59289C24.3256 10.4693 24.0286 13.5765 22.6213 16.2345C21.2141 18.8924 18.8112 20.8845 15.9386 21.775C14.8046 22.1038 13.7953 22.7655 13.0416 23.6744C12.2879 24.5833 11.8243 25.6976 11.711 26.8728C11.5978 28.0481 11.8399 29.2304 12.4062 30.2665C12.9724 31.3026 13.8366 32.1449 14.887 32.6843V32.7236Z" fill="#00ADB5"/>
<path d="M30.0618 31.7603C29.2777 31.7878 28.5071 31.9716 27.7949 32.3006C27.0827 32.6297 26.4434 33.0976 25.9142 33.6769C23.8615 35.8725 21.0229 37.166 18.0191 37.2747C15.0152 37.3834 12.0906 36.2983 9.88449 34.2567C9.31448 33.7219 8.64388 33.3057 7.9116 33.0323C7.1794 32.759 6.40011 32.634 5.61909 32.6645C4.65775 32.7099 3.72204 32.9899 2.89379 33.48C2.06547 33.9702 1.36981 34.6556 0.867396 35.4764C0.364914 36.2973 0.0710651 37.2286 0.0113421 38.1892C-0.0483086 39.1498 0.127972 40.1103 0.524946 40.9871C0.92192 41.8638 1.52738 42.6301 2.28862 43.2191C3.04985 43.808 3.9436 44.2016 4.89195 44.3656C5.84029 44.5296 6.81442 44.459 7.72919 44.16C8.64402 43.8609 9.4717 43.3425 10.14 42.65C11.1567 41.5493 12.3804 40.6599 13.7413 40.0329C15.1022 39.406 16.5734 39.0535 18.0707 38.9961C19.5679 38.9386 21.0619 39.177 22.4668 39.6977C23.8718 40.2185 25.1602 41.0113 26.2583 42.0308C26.9731 42.6768 27.8354 43.1377 28.7696 43.3732C29.7039 43.6089 30.6815 43.612 31.6172 43.3823C32.5529 43.1527 33.418 42.6973 34.137 42.0559C34.856 41.4146 35.4069 40.6068 35.7415 39.7033C36.0761 38.7998 36.1842 37.8281 36.0564 36.8731C35.9286 35.9182 35.5688 35.0091 35.0083 34.2254C34.4479 33.4417 33.7041 32.8072 32.8417 32.3775C31.9794 31.9478 31.0249 31.7358 30.0618 31.7603Z" fill="#00ADB5"/>
</svg>
